<svg id="visual" viewBox="0 0 1920 1080" width="1920" height="1080" xmlns="http://www.w3.org/2000/svg" xmlns:xlink="http://www.w3.org/1999/xlink" version="1.1"><rect x="0" y="0" width="1920" height="1080" fill="#001220"></rect><defs><linearGradient id="grad1_0" x1="43.8%" y1="0%" x2="100%" y2="100%"><stop offset="14.444444444444446%" stop-color="#001220" stop-opacity="1"></stop><stop offset="85.55555555555554%" stop-color="#001220" stop-opacity="1"></stop></linearGradient></defs><defs><linearGradient id="grad2_0" x1="0%" y1="0%" x2="56.3%" y2="100%"><stop offset="14.444444444444446%" stop-color="#001220" stop-opacity="1"></stop><stop offset="85.55555555555554%" stop-color="#001220" stop-opacity="1"></stop></linearGradient></defs><g transform="translate(1920, 0)"><path d="M0 432C-74.1 418.9 -148.2 405.9 -214.5 371.5C-280.8 337.2 -339.2 281.5 -374.1 216C-409.1 150.5 -420.5 75.3 -432 0L0 0Z" fill="#0039ff"></path></g><g transform="translate(0, 1080)"><path d="M0 -432C76.6 -421.3 153.3 -410.7 216 -374.1C278.7 -337.6 327.5 -275.2 361.1 -208.5C394.8 -141.8 413.4 -70.9 432 0L0 0Z" fill="#0039ff"></path></g></svg>