<svg xmlns="http://www.w3.org/2000/svg" xmlns:xlink="http://www.w3.org/1999/xlink" id="visual" width="1920" height="1080" version="1.1" viewBox="0 0 1920 1080"><rect width="1920" height="1080" x="0" y="0" fill="#001220"/><defs><linearGradient id="grad1_0" x1="43.8%" x2="100%" y1="0%" y2="100%"><stop offset="14.444%" stop-color="#001220" stop-opacity="1"/><stop offset="85.556%" stop-color="#001220" stop-opacity="1"/></linearGradient></defs><defs><linearGradient id="grad2_0" x1="0%" x2="56.3%" y1="0%" y2="100%"><stop offset="14.444%" stop-color="#001220" stop-opacity="1"/><stop offset="85.556%" stop-color="#001220" stop-opacity="1"/></linearGradient></defs><g><path fill="#0039ff" d="M0 432C-74.1 418.9 -148.2 405.9 -214.5 371.5C-280.8 337.2 -339.2 281.5 -374.1 216C-409.1 150.5 -420.5 75.3 -432 0L0 0Z" transform="translate(1920, 0)"/></g><g><path fill="#0039ff" d="M0 -432C76.6 -421.3 153.3 -410.7 216 -374.1C278.7 -337.6 327.5 -275.2 361.1 -208.5C394.8 -141.8 413.4 -70.9 432 0L0 0Z" transform="translate(0, 1080)"/></g></svg>